# xmcd
#
# Track frame offsets:
#	150
#	12908
#	33021
#	50515
#	71317
#	92917
#	109848
#	123636
#	142568
#	155951
#	198823
#
# Disc length: 3486 seconds
#
# Revision: 1
# Processed by: cddbd v1.5.2PL0 Copyright (c) Steve Scherf et al.
# Submitted via: audiograbber 1.83.01
#
DISCID=8b0d9c0b
DTITLE=Ladyfinger (NE) - Dusk
DYEAR=2009
DGENRE=rock
TTITLE0=Over And Over
TTITLE1=A.D.D.
TTITLE2=Little Things
TTITLE3=Two Years
TTITLE4=Read The Will
TTITLE5=Work Party
TTITLE6=Bones
TTITLE7=Plans
TTITLE8=Let's Get Married
TTITLE9=Born In The 80's
TTITLE10=Data Track
EXTD=
EXTT0=
EXTT1=
EXTT2=
EXTT3=
EXTT4=
EXTT5=
EXTT6=
EXTT7=
EXTT8=
EXTT9=
EXTT10=
PLAYORDER=
